<?xml version="1.0" ?><svg height="24px" version="1.1" viewBox="0 0 24 24" width="24px" xmlns="http://www.w3.org/2000/svg" xmlns:xlink="http://www.w3.org/1999/xlink"><title/><g fill="none" fill-rule="evenodd" id="timer-check" stroke="none" stroke-width="1"><path d="M12,5 C14.0762966,5 15.9787176,5.74445021 17.4549033,6.98099103 L17.4549033,6.98099103 L18.4142136,6 L19.9142136,7.53287497 L18.9142367,8.55485802 L19.0965424,8.81971742 C19.9835792,10.1619918 20.5,11.7706876 20.5,13.5 C20.5,18.0252101 16.96382,21.7245011 12.5040297,21.9853035 L12.5040297,21.9853035 L12.2506199,21.9963761 L12,22 L11.7493801,21.9963761 L11.4959703,21.9853035 C7.03617995,21.7245011 3.5,18.0252101 3.5,13.5 C3.5,8.80557963 7.30557963,5 12,5 Z M15.5352814,9.96 L11.2920905,14.2017909 L8.46421356,11.3742136 L7.05,12.7884271 L11.2926407,17.0310678 L16.9494949,11.3742136 L15.5352814,9.96 Z M15,2 L15,4 L9,4 L9,2 L15,2 Z" fill="#000000" fill-rule="nonzero" id="Combined-Shape"/></g></svg>